# xmcd
#
# Track frame offsets:
#	150
#	12185
#	28799
#	49077
#	66552
#	84649
#	99716
#	113126
#	131962
#	144556
#	161146
#
# Disc length: 2369 seconds
# Revision: 2
# Processed by: cddbd v1.5.2PL0 Copyright (c) Steve Scherf et al.
# Submitted via: dBpowerAMP V12.0
#
DISCID=a0093f0b
DTITLE=Leann Rimes - What A Wonderful World
DYEAR=2004
DGENRE=Christmas
TTITLE0=Rockin' Around The Christmas Tree
TTITLE1=A Different Kind Of Christmas
TTITLE2=White Christmas
TTITLE3=All I Want For Christmas
TTITLE4=Have Yourself A Merry Little Christmas
TTITLE5=Santa Baby
TTITLE6=What A Wonderful World
TTITLE7=The Christmas Song
TTITLE8=Just Love Me
TTITLE9=Miss You Like Christmas
TTITLE10=O Holy Night
EXTD=
EXTT0=
EXTT1=
EXTT2=
EXTT3=
EXTT4=
EXTT5=
EXTT6=
EXTT7=
EXTT8=
EXTT9=
EXTT10=
PLAYORDER=
